<svg xmlns="http://www.w3.org/2000/svg" width="1080" height="460" viewBox="0 0 1080 460">
<rect x="0" y="0" width="1080" height="460" fill="#ffffff"/>
<text x="540.0" y="28" text-anchor="middle" font-family="Arial, sans-serif" font-size="18" font-weight="700">Prediccion test compacta logistic_clean</text>
<rect x="76" y="58" width="974.00" height="340.00" fill="none" stroke="#222222"/>
<line x1="76" y1="398.00" x2="1050.00" y2="398.00" stroke="#e8e8e8"/>
<text x="68" y="402.00" text-anchor="end" font-family="Arial, sans-serif" font-size="11">-0.08</text>
<line x1="76" y1="313.00" x2="1050.00" y2="313.00" stroke="#e8e8e8"/>
<text x="68" y="317.00" text-anchor="end" font-family="Arial, sans-serif" font-size="11">0.21</text>
<line x1="76" y1="228.00" x2="1050.00" y2="228.00" stroke="#e8e8e8"/>
<text x="68" y="232.00" text-anchor="end" font-family="Arial, sans-serif" font-size="11">0.5</text>
<line x1="76" y1="143.00" x2="1050.00" y2="143.00" stroke="#e8e8e8"/>
<text x="68" y="147.00" text-anchor="end" font-family="Arial, sans-serif" font-size="11">0.79</text>
<line x1="76" y1="58.00" x2="1050.00" y2="58.00" stroke="#e8e8e8"/>
<text x="68" y="62.00" text-anchor="end" font-family="Arial, sans-serif" font-size="11">1.08</text>
<polyline points="76.00,111.72 81.44,265.97 86.88,101.12 92.32,301.15 97.77,154.46 103.21,155.25 108.65,153.68 114.09,156.84 119.53,150.56 124.97,163.29 130.41,138.59 135.85,190.55 141.30,100.59 146.74,303.00 152.18,158.21 157.62,147.93 163.06,168.95 168.50,129.03 173.94,215.12 179.39,83.71 184.83,365.57 190.27,339.71 195.71,251.75 201.15,89.15 206.59,344.57 212.03,266.89 217.47,102.09 222.92,297.81 228.36,147.95 233.80,168.90 239.24,129.12 244.68,214.88 250.12,83.80 255.56,365.23 261.01,338.45 266.45,247.92 271.89,86.86 277.33,353.29 282.77,295.67 288.21,143.95 293.65,177.87 299.09,115.75 304.54,253.41 309.98,90.26 315.42,340.37 320.86,253.78 326.30,90.51 331.74,339.41 337.18,250.84 342.63,88.56 348.07,346.78 353.51,273.98 358.95,110.29 364.39,270.53 369.83,106.13 375.27,284.14 380.72,124.46 386.16,227.75 391.60,81.45 397.04,374.55 402.48,374.54 407.92,374.50 413.36,374.34 418.80,373.70 424.25,371.15 429.69,361.10 435.13,323.19 440.57,205.11 446.01,88.60 451.45,346.65 456.89,273.57 462.34,109.78 467.78,272.17 473.22,108.07 478.66,277.74 484.10,115.21 489.54,255.08 494.98,91.45 500.42,335.91 505.87,240.35 511.31,83.53 516.75,366.29 522.19,342.43 527.63,260.14 533.07,95.55 538.51,320.88 543.96,199.16 549.40,92.80 554.84,330.91 560.28,225.98 565.72,81.50 571.16,374.33 576.60,373.66 582.04,370.99 587.49,360.47 592.93,320.94 598.37,199.31 603.81,92.68 609.25,331.35 614.69,227.22 620.13,81.46 625.58,374.52 631.02,374.42 636.46,374.02 641.90,372.43 647.34,366.11 652.78,341.76 658.22,258.06 663.66,93.78 669.11,327.30 674.55,216.00 679.99,83.41 685.43,366.74 690.87,344.13 696.31,265.50 701.75,100.64 707.20,302.81 712.64,157.83 718.08,148.65 723.52,167.38 728.96,131.59 734.40,208.29 739.84,86.75 745.28,353.73 750.73,297.19 756.17,146.77 761.61,171.49 767.05,125.03 772.49,226.14 777.93,81.49 783.37,374.37 788.82,373.80 794.26,371.54 799.70,362.63 805.14,328.79 810.58,220.09 816.02,82.30 821.46,371.14 826.91,361.07 832.35,323.10 837.79,204.87 843.23,88.75 848.67,346.08 854.11,271.72 859.55,107.53 864.99,279.51 870.44,117.66 875.88,247.60 881.32,86.69 886.76,353.96 892.20,297.96 897.64,148.25 903.08,168.25 908.53,130.17 913.97,212.07 919.41,84.91 924.85,360.87 930.29,322.35 935.73,202.94 941.17,90.02 946.61,341.27 952.06,256.52 957.50,92.55 962.94,331.83 968.38,228.56 973.82,81.45 979.26,374.54 984.70,374.49 990.15,374.28 995.59,373.46 1001.03,370.19 1006.47,357.35 1011.91,309.78 1017.35,172.72 1022.79,123.16 1028.23,231.46 1033.68,81.61 1039.12,373.90 1044.56,371.95 1050.00,364.24" fill="none" stroke="#222222" stroke-width="1.6"/>
<polyline points="76.00,275.10 81.44,111.72 86.88,265.97 92.32,101.12 97.77,301.15 103.21,154.46 108.65,155.25 114.09,153.68 119.53,156.84 124.97,150.56 130.41,163.29 135.85,138.59 141.30,190.55 146.74,100.59 152.18,303.00 157.62,158.21 163.06,147.93 168.50,168.95 173.94,129.03 179.39,215.12 184.83,83.71 190.27,365.57 195.71,339.71 201.15,251.75 206.59,89.15 212.03,344.57 217.47,266.89 222.92,102.09 228.36,297.81 233.80,147.95 239.24,168.90 244.68,129.12 250.12,214.88 255.56,83.80 261.01,365.23 266.45,338.45 271.89,247.92 277.33,86.86 282.77,353.29 288.21,295.67 293.65,143.95 299.09,177.87 304.54,115.75 309.98,253.41 315.42,90.26 320.86,340.37 326.30,253.78 331.74,90.51 337.18,339.41 342.63,250.84 348.07,88.56 353.51,346.78 358.95,273.98 364.39,110.29 369.83,270.53 375.27,106.13 380.72,284.14 386.16,124.46 391.60,227.75 397.04,81.45 402.48,374.55 407.92,374.54 413.36,374.50 418.80,374.34 424.25,373.70 429.69,371.15 435.13,361.10 440.57,323.19 446.01,205.11 451.45,88.60 456.89,346.65 462.34,273.57 467.78,109.78 473.22,272.17 478.66,108.07 484.10,277.74 489.54,115.21 494.98,255.08 500.42,91.45 505.87,335.91 511.31,240.35 516.75,83.53 522.19,366.29 527.63,342.43 533.07,260.14 538.51,95.55 543.96,320.88 549.40,199.16 554.84,92.80 560.28,330.91 565.72,225.98 571.16,81.50 576.60,374.33 582.04,373.66 587.49,370.99 592.93,360.47 598.37,320.94 603.81,199.31 609.25,92.68 614.69,331.35 620.13,227.22 625.58,81.46 631.02,374.52 636.46,374.42 641.90,374.02 647.34,372.43 652.78,366.11 658.22,341.76 663.66,258.06 669.11,93.78 674.55,327.30 679.99,216.00 685.43,83.41 690.87,366.74 696.31,344.13 701.75,265.50 707.20,100.64 712.64,302.81 718.08,157.83 723.52,148.65 728.96,167.38 734.40,131.59 739.84,208.29 745.28,86.75 750.73,353.73 756.17,297.19 761.61,146.77 767.05,171.49 772.49,125.03 777.93,226.14 783.37,81.49 788.82,374.37 794.26,373.80 799.70,371.54 805.14,362.63 810.58,328.79 816.02,220.09 821.46,82.30 826.91,371.14 832.35,361.07 837.79,323.10 843.23,204.87 848.67,88.75 854.11,346.08 859.55,271.72 864.99,107.53 870.44,279.51 875.88,117.66 881.32,247.60 886.76,86.69 892.20,353.96 897.64,297.96 903.08,148.25 908.53,168.25 913.97,130.17 919.41,212.07 924.85,84.91 930.29,360.87 935.73,322.35 941.17,202.94 946.61,90.02 952.06,341.27 957.50,256.52 962.94,92.55 968.38,331.83 973.82,228.56 979.26,81.45 984.70,374.54 990.15,374.49 995.59,374.28 1001.03,373.46 1006.47,370.19 1011.91,357.35 1017.35,309.78 1022.79,172.72 1028.23,123.16 1033.68,231.46 1039.12,81.61 1044.56,373.90 1050.00,371.95" fill="none" stroke="#6f7f8f" stroke-width="1.6"/>
<polyline points="76.00,227.90 81.44,227.90 86.88,227.90 92.32,227.90 97.77,227.90 103.21,227.90 108.65,227.90 114.09,227.90 119.53,227.90 124.97,227.90 130.41,227.90 135.85,227.90 141.30,227.90 146.74,227.90 152.18,227.90 157.62,227.90 163.06,227.90 168.50,227.90 173.94,227.90 179.39,227.90 184.83,227.90 190.27,227.90 195.71,227.90 201.15,227.90 206.59,227.90 212.03,227.90 217.47,227.90 222.92,227.90 228.36,227.90 233.80,227.90 239.24,227.90 244.68,227.90 250.12,227.90 255.56,227.90 261.01,227.90 266.45,227.90 271.89,227.90 277.33,227.90 282.77,227.90 288.21,227.90 293.65,227.90 299.09,227.90 304.54,227.90 309.98,227.90 315.42,227.90 320.86,227.90 326.30,227.90 331.74,227.90 337.18,227.90 342.63,227.90 348.07,227.90 353.51,227.90 358.95,227.90 364.39,227.90 369.83,227.90 375.27,227.90 380.72,227.90 386.16,227.90 391.60,227.90 397.04,227.90 402.48,227.90 407.92,227.90 413.36,227.90 418.80,227.90 424.25,227.90 429.69,227.90 435.13,227.90 440.57,227.90 446.01,227.90 451.45,227.90 456.89,227.90 462.34,227.90 467.78,227.90 473.22,227.90 478.66,227.90 484.10,227.90 489.54,227.90 494.98,227.90 500.42,227.90 505.87,227.90 511.31,227.90 516.75,227.90 522.19,227.90 527.63,227.90 533.07,227.90 538.51,227.90 543.96,227.90 549.40,227.90 554.84,227.90 560.28,227.90 565.72,227.90 571.16,227.90 576.60,227.90 582.04,227.90 587.49,227.90 592.93,227.90 598.37,227.90 603.81,227.90 609.25,227.90 614.69,227.90 620.13,227.90 625.58,227.90 631.02,227.90 636.46,227.90 641.90,227.90 647.34,227.90 652.78,227.90 658.22,227.90 663.66,227.90 669.11,227.90 674.55,227.90 679.99,227.90 685.43,227.90 690.87,227.90 696.31,227.90 701.75,227.90 707.20,227.90 712.64,227.90 718.08,227.90 723.52,227.90 728.96,227.90 734.40,227.90 739.84,227.90 745.28,227.90 750.73,227.90 756.17,227.90 761.61,227.90 767.05,227.90 772.49,227.90 777.93,227.90 783.37,227.90 788.82,227.90 794.26,227.90 799.70,227.90 805.14,227.90 810.58,227.90 816.02,227.90 821.46,227.90 826.91,227.90 832.35,227.90 837.79,227.90 843.23,227.90 848.67,227.90 854.11,227.90 859.55,227.90 864.99,227.90 870.44,227.90 875.88,227.90 881.32,227.90 886.76,227.90 892.20,227.90 897.64,227.90 903.08,227.90 908.53,227.90 913.97,227.90 919.41,227.90 924.85,227.90 930.29,227.90 935.73,227.90 941.17,227.90 946.61,227.90 952.06,227.90 957.50,227.90 962.94,227.90 968.38,227.90 973.82,227.90 979.26,227.90 984.70,227.90 990.15,227.90 995.59,227.90 1001.03,227.90 1006.47,227.90 1011.91,227.90 1017.35,227.90 1022.79,227.90 1028.23,227.90 1033.68,227.90 1039.12,227.90 1044.56,227.90 1050.00,227.90" fill="none" stroke="#2a6fbb" stroke-width="1.6"/>
<polyline points="76.00,113.07 81.44,298.82 86.88,104.63 92.32,310.94 97.77,206.74 103.21,186.37 108.65,142.16 114.09,145.70 119.53,177.35 124.97,192.94 130.41,125.73 135.85,218.00 141.30,126.76 146.74,341.20 152.18,176.55 157.62,187.69 163.06,195.82 168.50,141.50 173.94,222.71 179.39,85.29 184.83,309.10 190.27,313.26 195.71,301.04 201.15,108.59 206.59,346.85 212.03,244.12 217.47,106.84 222.92,291.19 228.36,162.87 233.80,206.34 239.24,170.27 244.68,243.55 250.12,89.46 255.56,327.81 261.01,349.80 266.45,302.16 271.89,82.61 277.33,350.26 282.77,263.23 288.21,151.61 293.65,158.77 299.09,114.68 304.54,326.31 309.98,94.98 315.42,316.33 320.86,293.81 326.30,116.99 331.74,313.11 337.18,282.79 342.63,84.98 348.07,362.47 353.51,250.38 358.95,126.60 364.39,288.32 369.83,110.25 375.27,287.45 380.72,141.01 386.16,272.16 391.60,87.28 397.04,324.41 402.48,359.33 407.92,338.85 413.36,336.45 418.80,305.14 424.25,298.83 429.69,333.62 435.13,325.08 440.57,234.88 446.01,102.25 451.45,342.46 456.89,323.44 462.34,122.69 467.78,278.83 473.22,110.04 478.66,347.00 484.10,125.58 489.54,326.35 494.98,117.92 500.42,306.09 505.87,337.72 511.31,87.41 516.75,329.44 522.19,317.11 527.63,268.43 533.07,97.25 538.51,296.36 543.96,252.09 549.40,102.09 554.84,342.99 560.28,238.79 565.72,85.20 571.16,299.01 576.60,309.22 582.04,348.10 587.49,328.05 592.93,296.51 598.37,229.40 603.81,100.65 609.25,335.60 614.69,249.61 620.13,93.78 625.58,338.92 631.02,325.87 636.46,354.76 641.90,357.89 647.34,346.43 652.78,315.05 658.22,324.27 663.66,98.77 669.11,296.00 674.55,262.71 679.99,92.92 685.43,325.63 690.87,323.48 696.31,327.30 701.75,104.38 707.20,306.41 712.64,161.01 718.08,172.07 723.52,151.02 728.96,163.35 734.40,181.67 739.84,95.00 745.28,316.59 750.73,269.45 756.17,138.18 761.61,165.79 767.05,116.99 772.49,267.00 777.93,92.16 783.37,318.60 788.82,277.50 794.26,336.07 799.70,344.30 805.14,354.25 810.58,221.41 816.02,90.03 821.46,362.52 826.91,331.30 832.35,319.44 837.79,216.56 843.23,90.52 848.67,323.86 854.11,272.94 859.55,98.43 864.99,328.50 870.44,113.76 875.88,257.05 881.32,107.14 886.76,336.09 892.20,329.95 897.64,139.25 903.08,185.09 908.53,205.51 913.97,232.22 919.41,88.09 924.85,321.60 930.29,313.04 935.73,247.36 941.17,108.26 946.61,341.16 952.06,293.25 957.50,106.91 962.94,329.50 968.38,285.45 973.82,83.55 979.26,294.06 984.70,357.69 990.15,320.34 995.59,332.60 1001.03,343.40 1006.47,345.19 1011.91,325.44 1017.35,214.34 1022.79,119.84 1028.23,259.01 1033.68,89.37 1039.12,315.43 1044.56,324.92 1050.00,335.53" fill="none" stroke="#b45f06" stroke-width="1.6"/>
<g><line x1="870.00" y1="28.00" x2="898.00" y2="28.00" stroke="#222222" stroke-width="2"/><text x="906.00" y="32.00" font-family="Arial, sans-serif" font-size="12">real</text></g>
<g><line x1="870.00" y1="46.00" x2="898.00" y2="46.00" stroke="#6f7f8f" stroke-width="2"/><text x="906.00" y="50.00" font-family="Arial, sans-serif" font-size="12">persistencia</text></g>
<g><line x1="870.00" y1="64.00" x2="898.00" y2="64.00" stroke="#2a6fbb" stroke-width="2"/><text x="906.00" y="68.00" font-family="Arial, sans-serif" font-size="12">AR(0) / media</text></g>
<g><line x1="870.00" y1="82.00" x2="898.00" y2="82.00" stroke="#b45f06" stroke-width="2"/><text x="906.00" y="86.00" font-family="Arial, sans-serif" font-size="12">kNN k=5</text></g>
<text x="563.00" y="450" text-anchor="middle" font-family="Arial, sans-serif" font-size="13">t</text>
<text transform="translate(18,228.0) rotate(-90)" text-anchor="middle" font-family="Arial, sans-serif" font-size="13">x[t+1]</text>
</svg>